<svg xmlns="http://www.w3.org/2000/svg" version="1.1" xmlns:xlink="http://www.w3.org/1999/xlink" xmlns:svgjs="http://svgjs.dev/svgjs" width="100%" height="100%" viewBox="0 0 1000 600"><rect width="1000" height="600" x="0" y="0" fill="#1e3ea4"/><g><rect width="333.3333333333333" height="333.3333333333333" rx="13.333333333333334" ry="13.333333333333334" y="310.8886562243111" fill="#111827" transform="matrix(0.4330257744794034,0,0,0.4330257744794034,0,93.206240104478)" x="288.66656494140625"/><path d="M512.2843541951813 552.5553345442486L488.92698154356617 552.5553345442486Q480.8340325287699 531.8021286548205 471.7795450171661 505.1194353684128Q462.68499340152863 478.43674208200514 455.193005947237 449.5905871777806L455.193005947237 449.5905871777806Q447.6609543889117 478.43674208200514 438.7266591894088 505.1194353684128Q429.792363989906 531.8021286548205 421.6994149751097 552.5553345442486L421.6994149751097 552.5553345442486L398.3420423234945 552.5553345442486Q385.080823888358 522.8277693512839 372.3805029096925 484.76687051932106Q359.68018193102694 446.70597168735816 348.4622328016063 402.55532904228124L348.4622328016063 402.55532904228124L377.3083877058308 402.55532904228124Q380.1930031962533 416.0969962056533 384.1994135996178 431.96238140297675Q388.24588810701596 447.8277666003002 392.7330677587842 463.6931517976237Q397.1801833065188 479.5585369949472 402.10806810265717 494.3021272793286Q406.99588879476187 509.00565345967635 411.32281203039554 519.9431538608615L411.32281203039554 519.9431538608615Q416.2506968265339 506.4014866974894 420.978261102504 491.25725537277157Q425.74588948250783 476.1130240480537 430.0728127181415 460.6883439951003Q434.3997359537752 445.26366394214693 438.28595404503875 430.3998813456646Q442.212236240336 415.53609874918226 445.09685173075843 402.55532904228124L445.09685173075843 402.55532904228124L467.2923653653978 402.55532904228124Q469.89653212758475 415.53609874918226 473.62249380271373 430.3998813456646Q477.3885195818764 445.26366394214693 481.71544281751005 460.6883439951003Q486.0423660531437 476.1130240480537 490.8099944331475 491.25725537277157Q495.5776228131513 506.4014866974894 500.46544350525596 519.9431538608615L500.46544350525596 519.9431538608615Q504.7923667408897 509.00565345967635 509.5599951208934 494.3021272793286Q514.3276235008973 479.5585369949472 518.9349954647664 463.6931517976237Q523.5423674286355 447.8277666003002 527.5888419360338 431.96238140297675Q531.635316443432 416.0969962056533 534.5199319338544 402.55532904228124L534.5199319338544 402.55532904228124L562.2042278211031 402.55532904228124Q550.9462145876489 446.70597168735816 538.2458936089834 484.76687051932106Q525.5455726303179 522.8277693512839 512.2843541951813 552.5553345442486L512.2843541951813 552.5553345442486Z " fill="#ffffff" transform="matrix(0.4330257744794034,0,0,0.4330257744794034,0,93.206240104478)"/><path d="M813.2983717948297 550.0733707561395L797.9049555149431 550.0733707561395Q792.5713876100767 536.3962015743534 786.6041284689886 518.8112697692Q780.6104655263912 501.2263379640464 775.6729546441634 482.21560087739397L775.6729546441634 482.21560087739397Q770.7090399604264 501.2263379640464 764.8209922238659 518.8112697692Q758.9329444873056 536.3962015743534 753.5993765824392 550.0733707561395L753.5993765824392 550.0733707561395L738.2059603025525 550.0733707561395Q729.4663020029943 530.4817500362838 721.0962969245653 505.39813860250626Q712.7262918461364 480.3145271687287 705.3332274235493 451.2175379055468L705.3332274235493 451.2175379055468L724.3439645102018 451.2175379055468Q726.245038218867 460.14202281566975 728.8854183697911 470.5979282133286Q731.5522023222242 481.05383361098745 734.509428091259 491.5097390086463Q737.4402500587846 501.9656444063051 740.6879176444211 511.6822433617053Q743.9091814285482 521.3724385155962 746.7607919915461 528.5806763276186L746.7607919915461 528.5806763276186Q750.0084595771825 519.6561914174956 753.1241081552728 509.6755544470031Q756.2661605348724 499.6949174765105 759.1177710978702 489.52945389545334Q761.9693816608681 479.3639903143961 764.5305504072644 469.56817995446823Q767.1181229551698 459.7723695945404 769.019196663835 451.2175379055468L769.019196663835 451.2175379055468L783.6469026999537 451.2175379055468Q785.3631497980543 459.7723695945404 787.8187033384136 469.56817995446823Q790.3006606802821 479.3639903143961 793.15227124328 489.52945389545334Q796.0038818062778 499.6949174765105 799.1459341858773 509.6755544470031Q802.2879865654768 519.6561914174956 805.509250349604 528.5806763276186L805.509250349604 528.5806763276186Q808.3608609126019 521.3724385155962 811.5029132922014 511.6822433617053Q814.644965671801 501.9656444063051 817.6814028453634 491.5097390086463Q820.717840018926 481.05383361098745 823.3846239713591 470.5979282133286Q826.0514079237923 460.14202281566975 827.9524816324576 451.2175379055468L827.9524816324576 451.2175379055468L846.1975084753421 451.2175379055468Q838.7780402512458 480.3145271687287 830.4080351728169 505.39813860250626Q822.038030094388 530.4817500362838 813.2983717948297 550.0733707561395L813.2983717948297 550.0733707561395ZM859.3201978254342 500.8302809414078L859.3201978254342 500.8302809414078Q859.3201978254342 487.70759159131575 863.1223452427647 477.9381850328972Q866.9244926600952 468.1423746729693 873.182193617785 461.67344330320566Q879.4662983769839 455.20451193344195 887.625073043339 451.98324814931476Q895.8102515112032 448.7355805636783 904.3650832001968 448.7355805636783L904.3650832001968 448.7355805636783Q924.3263571411819 448.7355805636783 934.9670891494054 461.19817487603933Q945.6078211576289 473.66076918840037 945.6078211576289 499.11403384330725L945.6078211576289 499.11403384330725Q945.6078211576289 500.27580110971377 945.6078211576289 502.0712596123421Q945.6078211576289 503.8667181149704 945.4229945470643 505.39813860250626L945.4229945470643 505.39813860250626L877.7500512788833 505.39813860250626Q878.8854147437806 520.7915548823928 886.6745361890063 528.7919067396924Q894.4900614357412 536.7658547954827 911.0188411805251 536.7658547954827L911.0188411805251 536.7658547954827Q920.3393831132867 536.7658547954827 926.7026992770134 535.1552229034191Q933.0660154407401 533.5445910113556 936.3136830263766 532.0131705238197L936.3136830263766 532.0131705238197L938.7692365667358 546.8521069720123Q935.5479727826087 548.5419502686036 927.4684095207814 550.4430239772689Q919.3888462589541 552.3440976859341 909.1177674718599 552.3440976859341L909.1177674718599 552.3440976859341Q896.1799047323325 552.3440976859341 886.7801513950433 548.4627388640758Q877.380398057754 544.5549762407084 871.2811199091196 537.7163916498155Q865.2082455619945 530.8778070589224 862.2510197929598 521.4516499201238Q859.3201978254342 512.0518965828346 859.3201978254342 500.8302809414078ZM878.1197045000127 491.14008578751697L927.1779677041798 491.14008578751697Q927.3627943147444 479.1527599023222 921.1843047615823 471.4692536631335Q915.0058152084202 463.75934362243555 904.1802565896321 463.75934362243555L904.1802565896321 463.75934362243555Q898.0809784409978 463.75934362243555 893.4339093753716 466.13568575826713Q888.7868403097455 468.51202789409865 885.539172724109 472.31417531142915Q882.3179089399819 476.11632272875966 880.4960466358443 481.05383361098745Q878.700588133216 486.01774829472447 878.1197045000127 491.14008578751697L878.1197045000127 491.14008578751697ZM988.7780366252355 402.55533172401834L988.7780366252355 455.60056895608056Q991.9993004093627 453.4882648353414 998.5738469851633 451.2175379055468Q1005.1219897594548 448.9468109757522 1013.6768214484483 448.9468109757522L1013.6768214484483 448.9468109757522Q1024.317553456672 448.9468109757522 1032.581943329064 452.74895839308266Q1040.872737002965 456.55110581041316 1046.5759581289608 463.3896904013062Q1052.2791792549565 470.22827499219926 1055.210001222482 479.73364353552546Q1058.167226991517 489.23901207885166 1058.167226991517 500.64545433084317L1058.167226991517 500.64545433084317Q1058.167226991517 512.6327802160379 1054.6555213907882 522.2173601638918Q1051.11741198855 531.828343913255 1044.6748844202955 538.4821018935834Q1038.205953050532 545.1358598739117 1029.070237728335 548.7531806806776Q1019.9609262076474 552.3440976859341 1008.5544839556559 552.3440976859341L1008.5544839556559 552.3440976859341Q996.1975048493318 552.3440976859341 986.6921363060055 550.6542543893428Q977.1867677626794 548.9380072912422 971.0874896140451 547.2217601931416L971.0874896140451 547.2217601931416L971.0874896140451 405.59176889758095L988.7780366252355 402.55533172401834ZM988.7780366252355 472.12934870086445L988.7780366252355 534.6799544762529Q991.4448205776687 535.4456647200209 996.2767162538596 536.1057597577519Q1001.1350157315596 536.7658547954827 1008.343253543582 536.7658547954827L1008.343253543582 536.7658547954827Q1022.6013063585713 536.7658547954827 1031.156138047565 527.3661014581935Q1039.7109697365586 517.939944319395 1039.7109697365586 500.64545433084317L1039.7109697365586 500.64545433084317Q1039.7109697365586 493.04115949618216 1038.205953050532 486.3874015158538Q1036.6745325629959 479.73364353552546 1033.268442168304 474.8753440578254Q1029.835947972103 470.04344838163456 1024.4231686627088 467.2710492231644Q1019.0103893533147 464.5250538662035 1011.4060945186537 464.5250538662035L1011.4060945186537 464.5250538662035Q1004.1714529051221 464.5250538662035 998.0985785579971 467.007011208072Q991.9993004093627 469.4625647484313 988.7780366252355 472.12934870086445L988.7780366252355 472.12934870086445ZM1083.0660118147298 550.0733707561395L1083.0660118147298 454.06914846854465Q1089.1388861618548 452.5377279810088 1099.2251383383843 450.84788468441747Q1109.311390514914 449.13163758631686 1122.4076760634966 449.13163758631686L1122.4076760634966 449.13163758631686Q1134.2101753381266 449.13163758631686 1141.9992967833523 452.45851657648103Q1149.788418228578 455.7853955666452 1154.4618910957133 461.7790585092426Q1159.1089601613396 467.7463176503307 1161.010033870005 476.11632272875966Q1162.91110757867 484.48632780718856 1162.91110757867 494.5725799837181L1162.91110757867 494.5725799837181L1162.91110757867 550.0733707561395L1145.2205605674797 550.0733707561395L1145.2205605674797 498.3747274010486Q1145.2205605674797 489.23901207885166 1144.0059856980545 482.770080709088Q1142.7650070271202 476.30114933932435 1139.9133964641223 472.31417531142915Q1137.0617859011245 468.327201283534 1132.3091016294616 466.5317427809057Q1127.5564173577984 464.7098804767682 1120.5066023548316 464.7098804767682L1120.5066023548316 464.7098804767682Q1117.6549917918335 464.7098804767682 1114.618554618271 464.89470708733285Q1111.5821174447085 465.10593749940676 1108.8361220877475 465.3699755144992Q1106.0637229292774 465.6604173311008 1103.8722074040106 466.0564743537394Q1101.707095680253 466.42612757486876 1100.7565588259204 466.6109541854334L1100.7565588259204 466.6109541854334L1100.7565588259204 550.0733707561395L1083.0660118147298 550.0733707561395ZM1225.6465399646231 537.3467384286861L1225.6465399646231 537.3467384286861Q1231.9306447238223 537.3467384286861 1236.762540400013 537.0562966120845Q1241.620839877713 536.7658547954827 1244.8421036618402 536.0001445517148L1244.8421036618402 536.0001445517148L1244.8421036618402 506.5335020674036Q1242.941029953175 505.58296521307096 1238.6636141086783 504.92287017533994Q1234.3861982641815 504.26277513760897 1228.3133239170563 504.26277513760897L1228.3133239170563 504.26277513760897Q1224.326349889161 504.26277513760897 1219.8377036325905 504.817254969303Q1215.375461177529 505.39813860250626 1211.6789289662354 507.1935971051346Q1207.9559929534325 509.01545940927207 1205.5004394130733 512.1575117888716Q1203.0184820712047 515.2731603669619 1203.0184820712047 520.4219016612635L1203.0184820712047 520.4219016612635Q1203.0184820712047 529.9272702045898 1209.117760219839 533.6238024158833Q1215.1906345669643 537.3467384286861 1225.6465399646231 537.3467384286861ZM1224.1151194770873 448.7355805636783L1224.1151194770873 448.7355805636783Q1234.7822552868201 448.7355805636783 1242.0961083048794 451.50797972214843Q1249.4099613229387 454.25397507910935 1253.8722037780003 459.2971011673741Q1258.3344462330617 464.3402272556388 1260.235519941727 471.2844270525688Q1262.1365936503921 478.20222304798955 1262.1365936503921 486.5722281264185L1262.1365936503921 486.5722281264185L1262.1365936503921 548.357123658039Q1259.8658667205978 548.7531806806776 1255.7732774866654 549.4132757184086Q1251.6806882527333 550.0733707561395 1246.5583507599408 550.6542543893428Q1241.4360132671484 551.2087342210368 1235.4423503245512 551.6840026482032Q1229.4486873819537 552.1592710753694 1223.5606396453932 552.1592710753694L1223.5606396453932 552.1592710753694Q1215.1906345669643 552.1592710753694 1208.1672233655067 550.4430239772689Q1201.1174083625397 548.7531806806776 1195.9950708697472 545.0302446678747Q1190.8463295754455 541.3337124565812 1187.9947190124476 535.2344343079469Q1185.1431084494498 529.1615599608218 1185.1431084494498 520.6067282718282L1185.1431084494498 520.6067282718282Q1185.1431084494498 512.4215498039639 1188.469987439614 506.5335020674036Q1191.796866429778 500.64545433084317 1197.500087555774 497.0281335240773Q1203.2033086817696 493.41081271731156 1210.8076035164306 491.7209694207202Q1218.4118983510916 490.0047223226196 1226.7819034295203 490.0047223226196L1226.7819034295203 490.0047223226196Q1229.4486873819537 490.0047223226196 1232.3002979449516 490.2951641392213Q1235.1519085079494 490.55920215431365 1237.7130772543455 491.03447058148Q1240.2742460007419 491.5097390086463 1242.1753197094072 491.90579603128486Q1244.0763934180723 492.27544925241426 1244.8421036618402 492.4602758629789L1244.8421036618402 492.4602758629789L1244.8421036618402 487.5227649807511Q1244.8421036618402 483.1661377317266 1243.8915668075076 478.8887218872298Q1242.941029953175 474.611306042733 1240.4854764128158 471.2844270525688Q1238.0035190709473 467.95754806240467 1233.7261032264505 465.95085914770243Q1229.4486873819537 463.94417023300025 1222.6101027910606 463.94417023300025L1222.6101027910606 463.94417023300025Q1213.8704444915024 463.94417023300025 1207.2958979157017 465.1851489039345Q1200.7477551414104 466.42612757486876 1197.500087555774 467.7463176503307L1197.500087555774 467.7463176503307L1195.414187236544 453.11861161421206Q1198.846681432745 451.58719112667615 1206.8206294885354 450.1613858451772Q1214.820981345835 448.7355805636783 1224.1151194770873 448.7355805636783ZM1291.418409524139 550.0733707561395L1291.418409524139 454.06914846854465Q1297.5176876727733 452.5377279810088 1307.4983246432657 450.84788468441747Q1317.478961613758 449.13163758631686 1330.575247162341 449.13163758631686L1330.575247162341 449.13163758631686Q1340.0806157056672 449.13163758631686 1346.5495470754308 451.69280633271313Q1353.0184784451947 454.25397507910935 1357.4015094957283 459.1914859613371L1357.4015094957283 459.1914859613371Q1358.7216995711904 458.2409491070045 1361.5733101341882 456.55110581041316Q1364.424920697186 454.8348587123126 1368.596721335646 453.224226820249Q1372.794925775615 451.58719112667615 1377.9172632684074 450.37261625725114Q1383.0660045627092 449.13163758631686 1388.9540522992695 449.13163758631686L1388.9540522992695 449.13163758631686Q1400.360494551261 449.13163758631686 1407.5687323632835 452.45851657648103Q1414.803373976815 455.7853955666452 1418.8959632107471 461.8582699137703Q1422.9885524446793 467.95754806240467 1424.4143577261782 476.30114933932435Q1425.8401630076771 484.67115441775326 1425.8401630076771 494.5725799837181L1425.8401630076771 494.5725799837181L1425.8401630076771 550.0733707561395L1408.1496159964868 550.0733707561395L1408.1496159964868 498.3747274010486Q1408.1496159964868 489.60866529998106 1407.304694348191 483.35096434229126Q1406.433368898386 477.06685958309225 1404.0570267625546 472.8950589446324Q1401.680684626723 468.69685450466335 1397.5880953927908 466.7165693914704Q1393.521909960368 464.7098804767682 1387.0529785906044 464.7098804767682L1387.0529785906044 464.7098804767682Q1378.1020898789723 464.7098804767682 1372.3196573484486 467.0862226125997Q1366.510821016416 469.4625647484313 1364.424920697186 471.36363845709656L1364.424920697186 471.36363845709656Q1365.9563411847219 476.30114933932435 1366.6956476269806 482.21560087739397Q1367.4613578707485 488.10364861395436 1367.4613578707485 494.5725799837181L1367.4613578707485 494.5725799837181L1367.4613578707485 550.0733707561395L1349.7972146610673 550.0733707561395L1349.7972146610673 498.3747274010486Q1349.7972146610673 489.60866529998106 1348.8466778067348 483.35096434229126Q1347.896140952402 477.06685958309225 1345.5197988165705 472.8950589446324Q1343.143456680739 468.69685450466335 1339.0508674468067 466.7165693914704Q1334.9582782128748 464.7098804767682 1328.6741734536756 464.7098804767682L1328.6741734536756 464.7098804767682Q1326.0337933027517 464.7098804767682 1322.97095232768 464.89470708733285Q1319.9345151541174 465.10593749940676 1317.1885197971567 465.3699755144992Q1314.4161206386864 465.6604173311008 1312.1453937088918 466.0564743537394Q1309.8746667790972 466.42612757486876 1309.1089565353293 466.6109541854334L1309.1089565353293 466.6109541854334L1309.1089565353293 550.0733707561395L1291.418409524139 550.0733707561395ZM1472.786122091105 451.2175379055468L1472.786122091105 550.0733707561395L1455.0955750799146 550.0733707561395L1455.0955750799146 451.2175379055468L1472.786122091105 451.2175379055468ZM1463.861637180982 433.34216428379165L1463.861637180982 433.34216428379165Q1459.108952909319 433.34216428379165 1455.7820739191545 430.20011190419217Q1452.4551949289905 427.0844633261019 1452.4551949289905 421.7508954212355L1452.4551949289905 421.7508954212355Q1452.4551949289905 416.41732751636914 1455.7820739191545 413.3016789382788Q1459.108952909319 410.15962655867935 1463.861637180982 410.15962655867935L1463.861637180982 410.15962655867935Q1468.614321452645 410.15962655867935 1471.9412004428093 413.3016789382788Q1475.2680794329733 416.41732751636914 1475.2680794329733 421.7508954212355L1475.2680794329733 421.7508954212355Q1475.2680794329733 427.0844633261019 1471.9412004428093 430.20011190419217Q1468.614321452645 433.34216428379165 1463.861637180982 433.34216428379165ZM1539.6933551155178 449.13163758631686L1539.6933551155178 449.13163758631686Q1541.990485846822 449.13163758631686 1544.9213078143473 449.42207940291854Q1547.878533583382 449.6861174180109 1550.7301441463799 450.1613858451772Q1553.5817547093777 450.63665427234355 1555.9580968452094 451.1119226995098Q1558.334438981041 451.58719112667615 1559.4698024459383 451.98324814931476L1559.4698024459383 451.98324814931476L1556.4333652723758 467.37666442920136Q1554.3474649531458 466.6109541854334 1549.4891654754458 465.5812059265731Q1544.657269799255 464.5250538662035 1537.0529749645941 464.5250538662035L1537.0529749645941 464.5250538662035Q1532.089060280857 464.5250538662035 1527.257164604666 465.5812059265731Q1522.398865126966 466.6109541854334 1520.8938484409393 467.007011208072L1520.8938484409393 467.007011208072L1520.8938484409393 550.0733707561395L1503.2033014297488 550.0733707561395L1503.2033014297488 455.38933854400665Q1509.487406188948 453.11861161421206 1518.7815443202 451.1119226995098Q1528.102086252962 449.13163758631686 1539.6933551155178 449.13163758631686ZM1655.2891981229684 451.2175379055468L1655.2891981229684 547.2217601931416Q1649.2163237758434 548.7531806806776 1639.235686805351 550.4430239772689Q1629.2550498348585 552.1592710753694 1616.1323604847664 552.1592710753694L1616.1323604847664 552.1592710753694Q1604.7259182327748 552.1592710753694 1596.9367967875494 548.8323920852054Q1589.1212715408144 545.5055130950411 1584.3685872691512 539.4326387479159Q1579.615902997488 533.3333605992816 1577.5300026782581 525.0689707268897Q1575.4441023590282 516.8045808544978 1575.4441023590282 506.71832867796826L1575.4441023590282 506.71832867796826L1575.4441023590282 451.2175379055468L1593.1346493702188 451.2175379055468L1593.1346493702188 502.91618126063776Q1593.1346493702188 520.9763814929577 1598.8378704962145 528.7919067396924Q1604.5410916222102 536.5810281849181 1618.0334341934315 536.5810281849181L1618.0334341934315 536.5810281849181Q1620.8850447564294 536.5810281849181 1623.9214819299918 536.3962015743534Q1626.9579191035546 536.1849711622795 1629.6247030559878 535.9209331471872Q1632.2914870084207 535.6304913305855 1634.4830025336878 535.3400495139838Q1636.6481142574453 535.0496076973823 1637.598651111778 534.6799544762529L1637.598651111778 534.6799544762529L1637.598651111778 451.2175379055468L1655.2891981229684 451.2175379055468ZM1706.6181882569301 539.8022919690454L1706.6181882569301 539.8022919690454Q1706.6181882569301 544.951033263347 1703.185694060729 548.7531806806776Q1699.7796036660372 552.555328098008 1693.8915559294767 552.555328098008L1693.8915559294767 552.555328098008Q1687.977104391407 552.555328098008 1684.5710139967152 548.7531806806776Q1681.138519800514 544.951033263347 1681.138519800514 539.8022919690454L1681.138519800514 539.8022919690454Q1681.138519800514 534.6799544762529 1684.5710139967152 530.8778070589224Q1687.977104391407 527.075659641592 1693.8915559294767 527.075659641592L1693.8915559294767 527.075659641592Q1699.7796036660372 527.075659641592 1703.185694060729 530.8778070589224Q1706.6181882569301 534.6799544762529 1706.6181882569301 539.8022919690454ZM1755.4652210490233 537.3467384286861L1755.4652210490233 537.3467384286861Q1766.3171834693205 537.3467384286861 1771.54513616815 534.4951278656881Q1776.7730888669796 531.6435173026903 1776.7730888669796 525.3594125434913L1776.7730888669796 525.3594125434913Q1776.7730888669796 518.8904811737277 1771.6243475726776 515.0883337563971Q1766.5020100798854 511.28618633906666 1754.7259146067647 506.5335020674036L1754.7259146067647 506.5335020674036Q1749.0226934807686 504.26277513760897 1743.7947407819395 501.88643300177745Q1738.56678808311 499.51009086594587 1734.7646406657793 496.2624232803094Q1730.9624932484492 493.04115949618216 1728.665362517145 488.47330183508376Q1726.3946355873504 483.9054441739853 1726.3946355873504 477.25168619365695L1726.3946355873504 477.25168619365695Q1726.3946355873504 464.15540064507417 1736.0848307412414 456.44549060437623Q1745.7750258951326 448.7355805636783 1762.51503605199 448.7355805636783L1762.51503605199 448.7355805636783Q1766.6868366904498 448.7355805636783 1770.885041130419 449.21084899084457Q1775.056841768879 449.6861174180109 1778.6741625756447 450.37261625725114Q1782.2914833824104 451.0327112949821 1785.0374787393714 451.79842153875006Q1787.7834740963324 452.5377279810088 1789.3148945838682 453.11861161421206L1789.3148945838682 453.11861161421206L1786.093630799741 468.327201283534Q1783.2420202367432 466.7957807959981 1777.142742088109 465.1851489039345Q1771.0698677409835 463.5745170118709 1762.51503605199 463.5745170118709L1762.51503605199 463.5745170118709Q1755.095567827894 463.5745170118709 1749.5771733124627 466.5317427809057Q1744.058778797032 469.4625647484313 1744.058778797032 475.7466695076303L1744.058778797032 475.7466695076303Q1744.058778797032 478.9679332917575 1745.299757467966 481.449890633626Q1746.5407361389 483.9054441739853 1749.1019048852966 485.91213308868754Q1751.6630736316927 487.9188220033897 1755.4652210490233 489.60866529998106Q1759.267368466354 491.3249123980816 1764.6009363712203 493.22598610674686L1764.6009363712203 493.22598610674686Q1771.6243475726776 495.89277005918007 1777.142742088109 498.4539388055763Q1782.6611366035397 501.0151075519725 1786.5688992269077 504.44760174817367Q1790.4502580487654 507.8800959443748 1792.5361583679953 512.7119916205656Q1794.6484624887346 517.5702910982657 1794.6484624887346 524.5937022997234L1794.6484624887346 524.5937022997234Q1794.6484624887346 538.2972752830187 1784.4565951061684 545.3206864844765Q1774.291131525111 552.3440976859341 1755.4652210490233 552.3440976859341L1755.4652210490233 552.3440976859341Q1742.3689355004406 552.3440976859341 1734.9494672763442 550.1789859621765Q1727.5299990522478 547.9874704369097 1724.8632150998146 546.8521069720123L1724.8632150998146 546.8521069720123L1728.1108826854509 531.6435173026903Q1731.1473198590136 532.7788807675877 1737.801077839342 535.0496076973823Q1744.4548358196705 537.3467384286861 1755.4652210490233 537.3467384286861ZM1834.9406635918342 451.2175379055468L1834.9406635918342 550.0733707561395L1817.2501165806436 550.0733707561395L1817.2501165806436 451.2175379055468L1834.9406635918342 451.2175379055468ZM1826.0161786817114 433.34216428379165L1826.0161786817114 433.34216428379165Q1821.263494410048 433.34216428379165 1817.936615419884 430.20011190419217Q1814.60973642972 427.0844633261019 1814.60973642972 421.7508954212355L1814.60973642972 421.7508954212355Q1814.60973642972 416.41732751636914 1817.936615419884 413.3016789382788Q1821.263494410048 410.15962655867935 1826.0161786817114 410.15962655867935L1826.0161786817114 410.15962655867935Q1830.7688629533743 410.15962655867935 1834.0957419435383 413.3016789382788Q1837.4226209337028 416.41732751636914 1837.4226209337028 421.7508954212355L1837.4226209337028 421.7508954212355Q1837.4226209337028 427.0844633261019 1834.0957419435383 430.20011190419217Q1830.7688629533743 433.34216428379165 1826.0161786817114 433.34216428379165ZM1881.8866226752618 420.6155319563382L1881.8866226752618 451.2175379055468L1919.353617016873 451.2175379055468L1919.353617016873 466.0564743537394L1881.8866226752618 466.0564743537394L1881.8866226752618 511.6822433617053Q1881.8866226752618 519.0753077842924 1883.0483899416683 523.9336072619924Q1884.1837534065655 528.7919067396924 1886.4544803363603 531.5379020966534Q1888.751611067664 534.2838974536144 1892.157701462356 535.4456647200209Q1895.5901956585574 536.5810281849181 1900.1580533196554 536.5810281849181L1900.1580533196554 536.5810281849181Q1908.132001375446 536.5810281849181 1912.9903008531462 534.7591658807805Q1917.8221965293371 532.9637073781523 1919.7232702380022 532.1979971343844L1919.7232702380022 532.1979971343844L1923.155764434203 546.8521069720123Q1920.48898048177 548.1722970474743 1913.8352225014416 550.1789859621765Q1907.1814645211136 552.1592710753694 1898.6266328321196 552.1592710753694L1898.6266328321196 552.1592710753694Q1888.5403806555903 552.1592710753694 1881.9922378812987 549.5981023289733Q1875.4440951070076 547.0369335825769 1871.4307172776032 541.8881922882753Q1867.4437432497082 536.7658547954827 1865.8331113576444 529.2671751668588Q1864.2224794655806 521.7420917367256 1864.2224794655806 511.8670699722699L1864.2224794655806 511.8670699722699L1864.2224794655806 423.65196912990075L1881.8866226752618 420.6155319563382ZM1934.37738007563 500.8302809414078L1934.37738007563 500.8302809414078Q1934.37738007563 487.70759159131575 1938.1795274929607 477.9381850328972Q1941.9816749102913 468.1423746729693 1948.2393758679807 461.67344330320566Q1954.5234806271799 455.20451193344195 1962.6822552935348 451.98324814931476Q1970.867433761399 448.7355805636783 1979.4222654503926 448.7355805636783L1979.4222654503926 448.7355805636783Q1999.3835393913776 448.7355805636783 2010.0242713996015 461.19817487603933Q2020.6650034078245 473.66076918840037 2020.6650034078245 499.11403384330725L2020.6650034078245 499.11403384330725Q2020.6650034078245 500.27580110971377 2020.6650034078245 502.0712596123421Q2020.6650034078245 503.8667181149704 2020.4801767972601 505.39813860250626L2020.4801767972601 505.39813860250626L1952.8072335290792 505.39813860250626Q1953.9425969939764 520.7915548823928 1961.731718439202 528.7919067396924Q1969.5472436859375 536.7658547954827 1986.076023430721 536.7658547954827L1986.076023430721 536.7658547954827Q1995.3965653634825 536.7658547954827 2001.7598815272092 535.1552229034191Q2008.123197690936 533.5445910113556 2011.3708652765724 532.0131705238197L2011.3708652765724 532.0131705238197L2013.8264188169321 546.8521069720123Q2010.6051550328045 548.5419502686036 2002.5255917709771 550.4430239772689Q1994.4460285091498 552.3440976859341 1984.174949722056 552.3440976859341L1984.174949722056 552.3440976859341Q1971.2370869825284 552.3440976859341 1961.8373336452394 548.4627388640758Q1952.43758030795 544.5549762407084 1946.3383021593156 537.7163916498155Q1940.2654278121906 530.8778070589224 1937.3082020431555 521.4516499201238Q1934.37738007563 512.0518965828346 1934.37738007563 500.8302809414078ZM1953.1768867502085 491.14008578751697L2002.2351499543759 491.14008578751697Q2002.4199765649403 479.1527599023222 1996.2414870117784 471.4692536631335Q1990.062997458616 463.75934362243555 1979.2374388398282 463.75934362243555L1979.2374388398282 463.75934362243555Q1973.138160691194 463.75934362243555 1968.4910916255674 466.13568575826713Q1963.8440225599413 468.51202789409865 1960.5963549743049 472.31417531142915Q1957.3750911901777 476.11632272875966 1955.5532288860402 481.05383361098745Q1953.757770383412 486.01774829472447 1953.1768867502085 491.14008578751697L1953.1768867502085 491.14008578751697Z " fill="#ffffff" transform="matrix(0.4330257744794034,0,0,0.4330257744794034,0,93.206240104478)"/></g></svg>